<svg width="17" height="15" viewBox="0 0 17 15" fill="none" xmlns="http://www.w3.org/2000/svg">
  <path
    d="M15.8254 0.612923L1.37624 6.18598C0.390068 6.58165 0.395917 7.13169 1.19649 7.37696L4.80014 8.50174L6.17898 12.7292C6.34661 13.1918 6.26398 13.3754 6.74985 13.3754C7.12481 13.3754 7.29115 13.2044 7.49999 13.0004C7.63279 12.8704 8.42129 12.1038 9.3017 11.2478L13.0502 14.0174C13.7399 14.3979 14.238 14.2008 14.4098 13.3768L16.8703 1.78153C17.1223 0.771535 16.4853 0.313406 15.8254 0.612923ZM5.3657 8.24332L13.4883 3.11869C13.8938 2.87277 14.2656 3.00498 13.9604 3.27596L7.00526 9.55123L6.73445 12.4396L5.3657 8.24332V8.24332Z"
    fill="#39ff14" />
</svg>